<?xml version="1.0" encoding="UTF-8" standalone="no"?>
<!-- Generator: Adobe Illustrator 19.0.0, SVG Export Plug-In . SVG Version: 6.00 Build 0)  -->

<svg
   xmlns:dc="http://purl.org/dc/elements/1.1/"
   xmlns:cc="http://creativecommons.org/ns#"
   xmlns:rdf="http://www.w3.org/1999/02/22-rdf-syntax-ns#"
   xmlns:svg="http://www.w3.org/2000/svg"
   xmlns="http://www.w3.org/2000/svg"
   xmlns:sodipodi="http://sodipodi.sourceforge.net/DTD/sodipodi-0.dtd"
   xmlns:inkscape="http://www.inkscape.org/namespaces/inkscape"
   version="1.1"
   id="Capa_1"
   x="0px"
   y="0px"
   viewBox="0 0 598.21014 524.44745"
   xml:space="preserve"
   sodipodi:docname="racing_icon_normal.svg"
   inkscape:version="0.92.3 (2405546, 2018-03-11)"
   width="598.21014"
   height="524.44745"><metadata
   id="metadata61"><rdf:RDF><cc:Work
       rdf:about=""><dc:format>image/svg+xml</dc:format><dc:type
         rdf:resource="http://purl.org/dc/dcmitype/StillImage" /><dc:title></dc:title></cc:Work></rdf:RDF></metadata><defs
   id="defs59">
	
</defs><sodipodi:namedview
   pagecolor="#ffffff"
   bordercolor="#666666"
   borderopacity="1"
   objecttolerance="10"
   gridtolerance="10"
   guidetolerance="10"
   inkscape:pageopacity="1"
   inkscape:pageshadow="2"
   inkscape:window-width="1299"
   inkscape:window-height="713"
   id="namedview57"
   showgrid="false"
   inkscape:zoom="0.4609375"
   inkscape:cx="186.29151"
   inkscape:cy="204.93563"
   inkscape:window-x="67"
   inkscape:window-y="27"
   inkscape:window-maximized="1"
   inkscape:current-layer="Capa_1"
   fit-margin-top="0"
   fit-margin-left="0"
   fit-margin-right="0"
   fit-margin-bottom="0" />
<rect
   style="fill:#282828;fill-opacity:1;stroke:#0a0a0a;stroke-width:1.60000002;stroke-miterlimit:4;stroke-dasharray:none;stroke-opacity:1"
   id="rect841"
   width="596.61017"
   height="522.84747"
   x="5.1389961"
   y="0.7999962" />



<g
   id="g26"
   transform="translate(968.3932,63.511861)">
</g>
<g
   id="g28"
   transform="translate(968.3932,63.511861)">
</g>
<g
   id="g30"
   transform="translate(968.3932,63.511861)">
</g>
<g
   id="g32"
   transform="translate(968.3932,63.511861)">
</g>
<g
   id="g34"
   transform="translate(968.3932,63.511861)">
</g>
<g
   id="g36"
   transform="translate(968.3932,63.511861)">
</g>
<g
   id="g38"
   transform="translate(968.3932,63.511861)">
</g>
<g
   id="g40"
   transform="translate(968.3932,63.511861)">
</g>
<g
   id="g42"
   transform="translate(968.3932,63.511861)">
</g>
<g
   id="g44"
   transform="translate(968.3932,63.511861)">
</g>
<g
   id="g46"
   transform="translate(968.3932,63.511861)">
</g>
<g
   id="g48"
   transform="translate(968.3932,63.511861)">
</g>
<g
   id="g50"
   transform="translate(968.3932,63.511861)">
</g>
<g
   id="g52"
   transform="translate(968.3932,63.511861)">
</g>
<g
   id="g54"
   transform="translate(968.3932,63.511861)">
</g>
<path
   style="fill:none;stroke-width:2.16949153"
   d="m 1107.0952,459.73406 -23.285,-23.35746 v -75.35441 -75.3544 h 19.0373 19.0373 l 16.1626,-16.27118 16.1626,-16.27119 h 112.9358 112.9358 l 12.4066,12.53749 12.4067,12.53748 v 91.59811 91.59811 h -31.5875 -31.5875 l -11.4696,10.84745 -11.4696,10.84746 h -94.2002 -94.2003 z m 156.3489,-0.94084 c 3.356,-3.35603 3.356,-13.13211 0,-16.48814 -1.8669,-1.86681 -16.0844,-2.60339 -50.2507,-2.60339 h -47.6472 l -23.3595,-22.77966 c -23.6488,-23.06173 -28.8875,-25.92489 -35.4419,-19.37046 -6.9971,6.99709 -4.0023,12.20222 22.0484,38.32092 l 25.4576,25.52412 h 53.2949 c 38.559,0 54.0148,-0.71984 55.8984,-2.60339 z m 40.4145,-0.80582 c 4.3542,-4.35422 4.3542,-10.52228 0,-14.87651 -1.8751,-1.87506 -5.2223,-3.4092 -7.4383,-3.4092 -9.2558,0 -14.0177,11.70628 -7.4382,18.28571 1.875,1.87507 5.2222,3.40921 7.4382,3.40921 2.216,0 5.5632,-1.53414 7.4383,-3.40921 z"
   id="path72"
   inkscape:connector-curvature="0" /><path
   d="m 502.61629,27.121956 c -39.00797,18.12499 -79.01597,32.03702 -120.23199,41.459 -0.79098,-10.12501 -1.582,-20.24799 -2.37299,-30.373 -95.77499,1.213 -185.859,23.125 -271.28101,62.969014 16.121,72.85499 32.236,145.71298 48.357,218.56799 39.00601,-18.12499 79.01402,-32.04102 120.23002,-41.461 0.791,10.12501 1.584,20.24999 2.377,30.373 95.774,-1.211 185.858,-23.123 271.27997,-62.96701 -16.11999,-72.855 -32.23899,-145.710984 -48.358,-218.567994 z m -141.58197,33.49999 c 1.682,18.943 3.361,37.88701 5.041,56.832004 -17.336,0.80099 -34.479,2.15599 -51.646,4.07799 -2.191,-18.90398 -4.383,-37.808984 -6.572,-56.710974 17.675,-1.979 35.327,-3.37701 53.177,-4.19902 z m -116.135,15.41299 c 2.797,18.79503 5.588,37.594014 8.389,56.389004 -20.137,4.68801 -39.84001,10.60701 -59.41401,17.09 -3.387,-18.62699 -6.77,-37.25397 -10.156,-55.878984 20.181,-6.68501 40.494,-12.537 61.18101,-17.60002 z M 158.3723,234.92593 c -4.627,-22.01597 -9.254,-44.02896 -13.875,-66.04297 16.164,-6.92803 32.43601,-13.32 48.99401,-19.23602 4.045,22.24203 8.09,44.48001 12.137,66.72302 -15.975,5.70301 -31.66801,11.87101 -47.25601,18.55597 z m 57.77501,37.19804 c -3.383,-18.62703 -6.77,-37.25401 -10.152,-55.88104 18.789,-6.45698 37.91601,-11.96897 57.31101,-16.48399 2.797,18.79502 5.594,37.59201 8.391,56.387 -18.8,4.37 -37.339,9.71599 -55.55001,15.97803 z m 47.53101,-72.45502 c -3.33,-22.44499 -6.668,-44.891 -10.002,-67.33599 19.871,-4.61302 40.016,-8.20902 60.358,-10.754 2.621,22.57398 5.242,45.146 7.863,67.719 -19.621,2.44899 -39.051,5.92498 -58.219,10.37099 z m 88.171,82.37499 c -17.679,1.98002 -35.33,3.37901 -53.181,4.20303 -0.36098,-4.07203 -0.723,-8.14602 -1.084,-12.21702 19.905,-3.79699 52.619,-6.164 52.619,-6.164 0.548,4.726 1.096,9.45302 1.646,14.17799 z m -22.997,-36.08198 c -2.191,-18.90202 -4.379,-37.80703 -6.572,-56.71101 16.486,-2.04499 33.106,-3.36299 49.812,-3.936 1.688,18.94499 3.359,37.887 5.04099,56.832 -16.19299,0.55899 -32.29999,1.83401 -48.28099,3.81501 z m 172.48097,-134.018 c 4.62301,22.01397 9.25202,44.025 13.87302,66.04101 -16.16402,6.92598 -32.43401,13.32 -48.99201,19.23398 -4.045,-22.23999 -8.09,-44.48198 -12.13701,-66.72099 15.973,-5.70402 31.66602,-11.87202 47.256,-18.554 z m -57.779,-37.199014 c 3.38699,18.62502 6.77001,37.252004 10.152,55.878994 -18.78897,6.45902 -37.91399,11.969 -57.31098,16.48599 -2.799,-18.79498 -5.592,-37.59197 -8.389,-56.386994 18.80001,-4.38599 37.33701,-9.72 55.54798,-15.97799 z M 394.00332,217.17194 c -1.78102,-22.77898 -3.56201,-45.55899 -5.34402,-68.33597 2.459,-0.53704 4.91603,-1.07002 7.36301,-1.63703 3.334,22.44102 6.67,44.88699 10.00399,67.33402 -3.99598,0.92897 -8.00598,1.798 -12.02298,2.63898 z m 20.80298,53.66102 c -2.79701,-18.79699 -5.59,-37.59202 -8.39097,-56.389 20.13899,-4.691 39.83596,-10.60702 59.41395,-17.09201 3.38702,18.62698 6.77102,37.25201 10.152,55.88099 -20.17897,6.68402 -40.48997,12.535 -61.17498,17.60002 z"
   id="path2"
   style="fill:#b4b4b4;fill-opacity:1;stroke:none;stroke-width:0.99999994;stroke-opacity:1"
   inkscape:connector-curvature="0" /><path
   d="m 65.161304,113.50094 c 0.639,2.25203 64.026996,226.99801 76.130996,387.59403 l 30.832,-2.32403 C 159.7843,335.03496 95.552304,107.34095 94.903304,105.06096 Z"
   id="path4"
   style="fill:#b4b4b4;fill-opacity:1;stroke-width:0.99999994"
   inkscape:connector-curvature="0" /></svg>